<mxfile host="app.diagrams.net" modified="2024-08-21T06:54:30.208Z" agent="Mozilla/5.0 (Windows NT 10.0; Win64; x64) AppleWebKit/537.36 (KHTML, like Gecko) Chrome/127.0.0.0 Safari/537.36" version="24.4.13" etag="1_zT0YXA-mRU3y2HVI6l" type="github">
  <diagram name="Page-1" id="tk4-b_0SeJN6EeX0Oaao">
    <mxGraphModel>
      <root>
        <mxCell id="0" />
        <mxCell id="1" parent="0" />
      </root>
    </mxGraphModel>
  </diagram>
</mxfile>
